<svg width="125" height="16" viewBox="0 0 125 16" fill="none" xmlns="http://www.w3.org/2000/svg">
<rect x="0.5" y="0.5" width="15" height="15" rx="4.5" fill="#E786D7" stroke="#E786D7"/>
<path d="M31.668 6H33.036L31.152 12H29.88L28.632 7.956L27.372 12H26.1L24.216 6H25.584L26.748 10.14L28.008 6H29.244L30.492 10.14L31.668 6ZM36.588 12.156C35.708 12.156 34.96 11.852 34.344 11.244C33.728 10.636 33.42 9.888 33.42 9C33.42 8.112 33.728 7.364 34.344 6.756C34.96 6.148 35.708 5.844 36.588 5.844C37.476 5.844 38.224 6.148 38.832 6.756C39.448 7.364 39.756 8.112 39.756 9C39.756 9.888 39.448 10.636 38.832 11.244C38.224 11.852 37.476 12.156 36.588 12.156ZM35.256 10.356C35.616 10.716 36.06 10.896 36.588 10.896C37.116 10.896 37.56 10.716 37.92 10.356C38.28 9.996 38.46 9.544 38.46 9C38.46 8.456 38.28 8.004 37.92 7.644C37.56 7.284 37.116 7.104 36.588 7.104C36.06 7.104 35.616 7.284 35.256 7.644C34.896 8.004 34.716 8.456 34.716 9C34.716 9.544 34.896 9.996 35.256 10.356ZM47.4799 5.844C48.1599 5.844 48.7079 6.064 49.1239 6.504C49.5399 6.944 49.7479 7.536 49.7479 8.28V12H48.4519V8.364C48.4519 7.948 48.3479 7.628 48.1399 7.404C47.9319 7.172 47.6479 7.056 47.2879 7.056C46.8879 7.056 46.5679 7.188 46.3279 7.452C46.0959 7.716 45.9799 8.112 45.9799 8.64V12H44.6839V8.364C44.6839 7.948 44.5839 7.628 44.3839 7.404C44.1919 7.172 43.9159 7.056 43.5559 7.056C43.1639 7.056 42.8439 7.192 42.5959 7.464C42.3479 7.728 42.2239 8.12 42.2239 8.64V12H40.9279V6H42.2239V6.72C42.6079 6.136 43.1799 5.844 43.9399 5.844C44.7079 5.844 45.2759 6.16 45.6439 6.792C46.0439 6.16 46.6559 5.844 47.4799 5.844ZM52.1549 9.552C52.2509 10.008 52.4709 10.36 52.8149 10.608C53.1589 10.848 53.5789 10.968 54.0749 10.968C54.7629 10.968 55.2789 10.72 55.6229 10.224L56.6909 10.848C56.0989 11.72 55.2229 12.156 54.0629 12.156C53.0869 12.156 52.2989 11.86 51.6989 11.268C51.0989 10.668 50.7989 9.912 50.7989 9C50.7989 8.104 51.0949 7.356 51.6869 6.756C52.2789 6.148 53.0389 5.844 53.9669 5.844C54.8469 5.844 55.5669 6.152 56.1269 6.768C56.6949 7.384 56.9789 8.132 56.9789 9.012C56.9789 9.148 56.9629 9.328 56.9309 9.552H52.1549ZM52.1429 8.496H55.6709C55.5829 8.008 55.3789 7.64 55.0589 7.392C54.7469 7.144 54.3789 7.02 53.9549 7.02C53.4749 7.02 53.0749 7.152 52.7549 7.416C52.4349 7.68 52.2309 8.04 52.1429 8.496ZM61.2753 5.844C61.9633 5.844 62.5193 6.064 62.9433 6.504C63.3673 6.944 63.5793 7.548 63.5793 8.316V12H62.2833V8.448C62.2833 8 62.1633 7.656 61.9233 7.416C61.6833 7.176 61.3553 7.056 60.9393 7.056C60.4833 7.056 60.1153 7.2 59.8353 7.488C59.5553 7.768 59.4153 8.2 59.4153 8.784V12H58.1193V6H59.4153V6.768C59.8073 6.152 60.4273 5.844 61.2753 5.844Z" fill="#4F4F4F"/>
<rect x="77.5" y="0.5" width="15" height="15" rx="4.5" fill="#7F7FD5" stroke="#7F7FD5"/>
<path d="M106.308 5.844C106.988 5.844 107.536 6.064 107.952 6.504C108.368 6.944 108.576 7.536 108.576 8.28V12H107.28V8.364C107.28 7.948 107.176 7.628 106.968 7.404C106.76 7.172 106.476 7.056 106.116 7.056C105.716 7.056 105.396 7.188 105.156 7.452C104.924 7.716 104.808 8.112 104.808 8.64V12H103.512V8.364C103.512 7.948 103.412 7.628 103.212 7.404C103.02 7.172 102.744 7.056 102.384 7.056C101.992 7.056 101.672 7.192 101.424 7.464C101.176 7.728 101.052 8.12 101.052 8.64V12H99.756V6H101.052V6.72C101.436 6.136 102.008 5.844 102.768 5.844C103.536 5.844 104.104 6.16 104.472 6.792C104.872 6.16 105.484 5.844 106.308 5.844ZM110.983 9.552C111.079 10.008 111.299 10.36 111.643 10.608C111.987 10.848 112.407 10.968 112.903 10.968C113.591 10.968 114.107 10.72 114.451 10.224L115.519 10.848C114.927 11.72 114.051 12.156 112.891 12.156C111.915 12.156 111.127 11.86 110.527 11.268C109.927 10.668 109.627 9.912 109.627 9C109.627 8.104 109.923 7.356 110.515 6.756C111.107 6.148 111.867 5.844 112.795 5.844C113.675 5.844 114.395 6.152 114.955 6.768C115.523 7.384 115.807 8.132 115.807 9.012C115.807 9.148 115.791 9.328 115.759 9.552H110.983ZM110.971 8.496H114.499C114.411 8.008 114.207 7.64 113.887 7.392C113.575 7.144 113.207 7.02 112.783 7.02C112.303 7.02 111.903 7.152 111.583 7.416C111.263 7.68 111.059 8.04 110.971 8.496ZM120.103 5.844C120.791 5.844 121.347 6.064 121.771 6.504C122.195 6.944 122.407 7.548 122.407 8.316V12H121.111V8.448C121.111 8 120.991 7.656 120.751 7.416C120.511 7.176 120.183 7.056 119.767 7.056C119.311 7.056 118.943 7.2 118.663 7.488C118.383 7.768 118.243 8.2 118.243 8.784V12H116.947V6H118.243V6.768C118.635 6.152 119.255 5.844 120.103 5.844Z" fill="#4F4F4F"/>
</svg>
